HIERARCHY
ROOT Hips
{
	OFFSET 0.0000 0.0000 0.0000
	CHANNELS 6 Xposition Yposition Zposition Zrotation Xrotation Yrotation
	JOINT Spine1
	{
		OFFSET -0.0137 5.0038 -0.0537
		CHANNELS 3 Zrotation Xrotation Yrotation
		JOINT Spine2
		{
			OFFSET -0.0000 7.1253 -0.0298
			CHANNELS 3 Zrotation Xrotation Yrotation
			JOINT Chest
			{
				OFFSET -0.0000 7.5501 -0.8160
				CHANNELS 3 Zrotation Xrotation Yrotation
				JOINT Neck1
				{
					OFFSET -0.1817 26.3113 -0.5533
					CHANNELS 3 Zrotation Xrotation Yrotation
					JOINT Neck2
					{
						OFFSET -0.0000 7.7094 2.3026
						CHANNELS 3 Zrotation Xrotation Yrotation
						JOINT Head
						{
							OFFSET -0.0000 6.1289 1.9537
							CHANNELS 3 Zrotation Xrotation Yrotation
							JOINT Jaw
							{
								OFFSET 0.0026 0.4756 3.0949
								CHANNELS 3 Zrotation Xrotation Yrotation
								End Site
								{
									OFFSET 0.0 1.0 0.0
								}
							}
							JOINT LeftEye
							{
								OFFSET 3.2064 5.3802 7.5869
								CHANNELS 3 Zrotation Xrotation Yrotation
								End Site
								{
									OFFSET 0.0 1.0 0.0
								}
							}
							JOINT RightEye
							{
								OFFSET -3.2224 5.3619 7.5582
								CHANNELS 3 Zrotation Xrotation Yrotation
								End Site
								{
									OFFSET 0.0 1.0 0.0
								}
							}
						}
					}
				}
				JOINT LeftShoulder
				{
					OFFSET 1.6217 23.2372 5.1134
					CHANNELS 3 Zrotation Xrotation Yrotation
					JOINT LeftArm
					{
						OFFSET 14.9198 0.0000 -5.5023
						CHANNELS 3 Zrotation Xrotation Yrotation
						JOINT LeftForeArm
						{
							OFFSET 28.7393 0.0000 -0.0026
							CHANNELS 3 Zrotation Xrotation Yrotation
							JOINT LeftHand
							{
								OFFSET 27.0940 -0.0000 0.0026
								CHANNELS 3 Zrotation Xrotation Yrotation
								JOINT LeftHandThumbEnd
								{
									OFFSET 12.2686 -3.2202 4.8331
									CHANNELS 3 Zrotation Xrotation Yrotation
									End Site
									{
										OFFSET 0.0 1.0 0.0
									}
								}
								JOINT LeftHandMiddleEnd
								{
									OFFSET 19.0120 -0.3129 -0.0340
									CHANNELS 3 Zrotation Xrotation Yrotation
									End Site
									{
										OFFSET 0.0 1.0 0.0
									}
								}
							}
						}
					}
				}
				JOINT RightShoulder
				{
					OFFSET -1.3801 23.1803 5.2142
					CHANNELS 3 Zrotation Xrotation Yrotation
					JOINT RightArm
					{
						OFFSET -15.0372 0.0000 -5.5456
						CHANNELS 3 Zrotation Xrotation Yrotation
						JOINT RightForeArm
						{
							OFFSET -28.7366 0.0000 -0.0026
							CHANNELS 3 Zrotation Xrotation Yrotation
							JOINT RightHand
							{
								OFFSET -27.1336 -0.0000 0.0026
								CHANNELS 3 Zrotation Xrotation Yrotation
								JOINT RightHandThumbEnd
								{
									OFFSET -12.2642 -3.2115 4.8040
									CHANNELS 3 Zrotation Xrotation Yrotation
									End Site
									{
										OFFSET 0.0 1.0 0.0
									}
								}
								JOINT RightHandMiddleEnd
								{
									OFFSET -19.0006 -0.3066 -0.0316
									CHANNELS 3 Zrotation Xrotation Yrotation
									End Site
									{
										OFFSET 0.0 1.0 0.0
									}
								}
							}
						}
					}
				}
			}
		}
	}
	JOINT LeftLeg
	{
		OFFSET 10.0432 -8.4345 2.5957
		CHANNELS 3 Zrotation Xrotation Yrotation
		JOINT LeftShin
		{
			OFFSET -0.0000 -43.2218 -0.8029
			CHANNELS 3 Zrotation Xrotation Yrotation
			JOINT LeftFoot
			{
				OFFSET 0.0000 -42.1551 -3.4815
				CHANNELS 3 Zrotation Xrotation Yrotation
				JOINT LeftToeBase
				{
					OFFSET 0.0000 -5.0595 13.2315
					CHANNELS 3 Zrotation Xrotation Yrotation
					End Site
					{
						OFFSET 0.0 1.0 0.0
					}
				}
			}
		}
	}
	JOINT RightLeg
	{
		OFFSET -10.0473 -8.2953 2.6203
		CHANNELS 3 Zrotation Xrotation Yrotation
		JOINT RightShin
		{
			OFFSET 0.0000 -43.3622 -0.8056
			CHANNELS 3 Zrotation Xrotation Yrotation
			JOINT RightFoot
			{
				OFFSET 0.0000 -42.1174 -3.4784
				CHANNELS 3 Zrotation Xrotation Yrotation
				JOINT RightToeBase
				{
					OFFSET -0.0000 -5.0796 13.2842
					CHANNELS 3 Zrotation Xrotation Yrotation
					End Site
					{
						OFFSET 0.0 1.0 0.0
					}
				}
			}
		}
	}
}
MOTION
Frames: 5
Frame Time: 0.033333
-57.7922 64.1937 37.3806 7.4800 20.9655 2.1983 9.1231 4.4457 1.4464 2.3080 -0.9151 0.7215 4.2931 5.0759 2.1505 1.8352 -5.3452 3.2180 -5.1005 -4.2589 -12.6583 6.4741 -3.1635 -22.7773 -0.0681 -0.1062 -0.0842 0.7012 -10.6544 -3.9620 -0.8136 -10.7240 3.7941 -1.2117 4.9722 0.2572 -49.1660 -9.4692 -4.6253 -0.3834 1.9730 -139.0005 -0.4995 3.2585 -3.9165 -16.2641 11.1196 16.4936 -63.0800 1.6725 2.9013 -18.3882 4.8038 21.3270 -29.2465 -36.1681 21.2272 -2.2882 0.0282 3.5164 48.8117 -73.2017 -51.0871 15.8943 7.2033 -16.7547 49.6298 -3.8703 -5.3968 41.2345 -5.0656 10.7041 -0.5149 5.7806 -3.9771 -35.4841 4.8417 24.8210 1.8387 -0.7361 -1.8687 -175.7793 -77.3616 132.6871 93.9085 89.1878 93.9644 11.5630 -4.5069 -6.8444 -1.3943 3.1135 0.9487
-57.2879 64.6852 37.2631 7.2078 20.4068 1.5852 8.8855 4.3591 1.3946 2.2305 -0.9401 0.6333 4.1516 5.3401 2.0698 1.8669 -5.4936 3.1846 -5.0839 -4.2695 -12.6833 5.9710 -2.6907 -22.4521 -0.0764 -0.1032 -0.0618 0.7014 -10.6534 -3.9301 -0.8319 -10.7218 3.8087 -0.8660 4.9743 0.5040 -49.6701 -9.0062 -5.3702 -0.3515 1.8779 -138.3908 -0.1746 4.4327 -3.6715 -16.3442 11.1446 16.4890 -63.2438 1.6991 2.8704 -16.5937 5.1012 21.3089 -29.7090 -35.7545 21.3571 -2.3532 0.0514 4.7901 54.9057 -74.7804 -57.0386 15.9695 7.1784 -16.6090 49.6868 -3.8279 -5.2580 41.0927 -5.2615 10.8940 -0.5480 7.3955 -3.8324 -35.4552 4.2014 23.9277 1.8409 -0.8164 -1.8827 -172.0485 -78.3870 129.4313 32.7690 88.3989 32.8494 11.8108 -3.6177 -6.9364 -1.3924 3.3617 0.9635
-56.7106 65.2191 37.0889 6.9033 19.6827 0.9722 8.6298 4.2462 1.2562 2.1090 -0.9149 0.6075 4.0023 5.7255 1.8977 1.9706 -5.8692 2.9662 -5.1603 -4.2519 -12.7411 5.4544 -2.1651 -22.1096 -0.0603 -0.1047 -0.0708 0.7256 -10.6355 -3.9212 -0.8244 -10.7021 3.7743 -0.4889 4.8906 0.6966 -50.2488 -8.6609 -6.4745 -0.3943 1.7497 -137.7154 0.1456 5.6100 -3.1634 -16.2200 11.1573 16.4542 -63.1026 1.7639 2.7600 -14.6777 5.3272 21.3240 -30.1782 -35.7557 21.7496 -2.4039 0.1083 6.2630 61.4461 -75.9668 -63.5335 16.0625 7.1757 -16.5680 49.6096 -3.8061 -5.2540 41.2177 -5.7772 10.9804 -0.6225 9.8498 -3.6338 -35.3815 3.2298 22.6103 1.8666 -0.8793 -1.8619 -166.7081 -79.5540 124.5094 16.2796 86.7237 16.4438 12.2201 -2.3679 -6.9983 -1.3949 3.4541 1.0786
-55.8864 65.7670 36.7387 6.5528 18.8192 0.4284 8.2483 4.2809 1.1606 1.9701 -0.9434 0.4899 3.7580 6.0724 1.6650 2.3623 -6.1809 2.6792 -5.1286 -4.2499 -12.8608 4.8685 -1.6402 -21.7430 -0.0633 -0.1005 -0.0465 0.7302 -10.6511 -3.8907 -0.8355 -10.7158 3.7914 0.1547 4.8645 0.6245 -50.7527 -8.6910 -7.6508 -0.4907 1.5414 -137.0512 0.4924 6.5395 -2.7033 -16.1797 11.1544 16.4236 -62.9754 1.8043 2.6539 -12.7553 5.5509 21.3632 -30.2665 -36.1204 22.0093 -2.5502 0.2045 7.9129 65.3103 -77.0282 -67.4004 16.1677 7.1802 -16.4769 49.5376 -3.6684 -5.1486 41.1754 -6.7168 11.0126 -0.7010 12.9251 -3.3870 -34.6254 1.9849 21.2197 1.8808 -0.9634 -1.8804 -159.7690 -80.7190 117.9603 10.2734 84.6451 10.4902 12.4463 -0.8712 -7.2191 -1.3892 3.7144 1.1001
-54.8182 66.4071 36.1552 6.1197 17.8040 0.0008 7.7426 4.3944 1.0248 1.8081 -0.9712 0.3695 3.4187 6.4316 1.2991 3.0942 -6.4308 2.2320 -5.1340 -4.2524 -13.0238 4.2947 -1.0057 -21.3373 -0.0509 -0.1046 -0.0592 0.7548 -10.6750 -3.9049 -0.8356 -10.7367 3.7728 0.9139 4.7869 0.3596 -50.8534 -9.2301 -9.1237 -0.5454 1.4068 -136.4201 0.8506 6.9182 -2.3154 -16.1741 11.2136 16.4490 -62.8618 1.8719 2.6224 -10.7471 5.7438 21.3244 -29.9220 -36.5844 22.0591 -2.8300 0.3057 9.5934 66.8174 -78.3904 -69.2035 16.3034 7.1496 -16.3592 49.4875 -3.5826 -5.0722 41.2540 -8.0756 10.9602 -0.8121 16.6095 -3.1031 -33.6439 0.5142 19.9050 1.8805 -0.9874 -1.8448 -149.6046 -81.9710 108.0427 6.7564 81.9365 7.0411 12.7244 1.0704 -7.4850 -1.3857 3.9248 1.1186
